<?xml version="1.0" standalone="no"?>
<!DOCTYPE svg PUBLIC "-//W3C//DTD SVG 20010904//EN"
 "http://www.w3.org/TR/2001/REC-SVG-20010904/DTD/svg10.dtd">
<svg version="1.0" xmlns="http://www.w3.org/2000/svg"
 width="400.000000pt" height="400.000000pt" viewBox="0 0 400.000000 400.000000"
 preserveAspectRatio="xMidYMid meet">
<metadata>
Created by potrace 1.14, written by Peter Selinger 2001-2017
</metadata>
<g transform="translate(0.000000,400.000000) scale(0.100000,-0.100000)"
fill="#000000" stroke="none">
<path d="M1827 3612 c-50 -28 -59 -37 -31 -28 37 11 109 9 147 -5 53 -19 46
-27 -12 -15 -41 8 -63 6 -133 -13 -96 -26 -103 -27 -142 -16 -25 7 -28 6 -23
-9 6 -14 3 -16 -16 -10 -12 3 -30 13 -39 22 -22 18 -22 11 -3 -50 8 -27 12
-48 9 -48 -2 0 -36 9 -74 19 -54 15 -77 17 -105 10 -20 -6 -33 -14 -30 -19 3
-4 13 -6 24 -3 21 5 64 -14 100 -46 l24 -21 -34 7 c-95 21 -163 -1 -195 -62
-11 -22 -36 -50 -55 -63 -83 -54 -114 -103 -125 -194 -6 -48 -4 -58 9 -58 17
0 27 20 27 57 0 15 12 36 31 54 41 38 58 37 26 -1 -14 -16 -28 -49 -32 -72
-10 -68 -13 -72 -55 -98 -43 -27 -55 -48 -51 -94 1 -28 33 -66 54 -66 5 0 7
-19 5 -45 -5 -38 -3 -45 15 -51 20 -6 20 -7 -6 -26 -36 -26 -34 -36 8 -54 23
-9 35 -21 35 -33 0 -11 9 -23 21 -26 19 -6 19 -8 5 -30 -14 -21 -13 -24 9 -45
25 -23 75 -156 75 -198 0 -15 -6 -22 -19 -22 -24 0 -64 -51 -80 -101 -46 -145
39 -382 160 -444 24 -13 64 -13 77 -1 2 3 17 -20 32 -52 43 -88 121 -192 194
-257 l67 -60 -4 -143 c-3 -79 -6 -144 -8 -145 -2 -2 -33 -11 -69 -20 -36 -9
-118 -33 -183 -52 -85 -25 -138 -35 -187 -35 -181 0 -346 -108 -422 -276 -45
-100 -54 -124 -117 -295 -109 -300 -105 -286 -87 -314 8 -13 24 -26 35 -30 12
-4 18 -12 14 -21 -4 -12 195 -14 1541 -14 850 0 1546 2 1546 4 0 18 -127 278
-209 429 -56 101 -101 189 -101 196 0 7 20 47 45 90 l45 78 -4 94 c-5 84 -8
121 -21 197 -5 29 -23 52 -40 52 -8 0 -19 16 -25 35 -14 44 -44 65 -91 65 -44
0 -46 8 -43 140 9 378 3 430 -51 430 -32 0 -75 -41 -76 -72 0 -13 -2 -31 -4
-40 -2 -9 -6 -54 -9 -100 -3 -46 -8 -105 -11 -133 -3 -27 -7 -77 -10 -109 -3
-33 -7 -61 -9 -63 -2 -3 -21 23 -42 57 -186 295 -248 365 -289 323 -24 -23
-18 -63 21 -143 77 -160 162 -386 178 -475 10 -49 35 -141 57 -203 21 -62 39
-116 39 -119 0 -3 -27 20 -60 51 -127 117 -198 152 -332 162 -49 4 -140 23
-223 46 -77 22 -150 42 -162 43 -44 6 -83 17 -84 23 0 4 -3 66 -5 137 l-5 130
40 38 c87 82 187 215 227 303 19 42 28 53 38 45 7 -6 23 -9 35 -6 138 26 252
324 183 476 -24 53 -41 69 -80 78 l-28 6 29 92 c16 51 39 103 53 118 20 21 22
30 13 47 -9 16 -7 23 10 35 12 8 21 23 21 33 0 12 10 21 30 25 35 8 42 44 10
52 -25 7 -26 23 -2 30 17 4 18 8 5 56 -7 28 -13 58 -13 67 0 8 -15 33 -33 54
-32 38 -33 40 -21 85 15 58 10 116 -15 172 -39 86 -114 144 -177 137 -19 -2
-30 0 -26 4 4 4 20 9 35 10 15 1 27 6 27 10 0 15 -60 38 -101 38 -36 0 -48 6
-81 39 -21 22 -47 43 -58 46 -15 5 -19 13 -16 38 5 47 -21 89 -81 129 -47 30
-59 20 -20 -16 20 -18 37 -38 37 -43 0 -6 -22 12 -49 38 -27 27 -57 49 -69 49
-19 0 -18 -4 14 -52 19 -29 34 -64 34 -78 0 -23 -1 -22 -18 10 -9 20 -41 51
-72 72 -30 20 -65 47 -77 60 -28 27 -37 20 -23 -18 10 -26 10 -27 -7 -13 -28
24 -101 49 -134 47 -17 -1 -49 -13 -72 -26z"/>
</g>
</svg>
